HIERARCHY
ROOT Hips
{
	OFFSET	0.000000	0.000000	0.000000
	CHANNELS 6 Xposition Yposition Zposition Zrotation Xrotation Yrotation
	JOINT LeftHip
	{
		OFFSET	5.000000	0.000000	0.000000
		CHANNELS 3 Zrotation Xrotation Yrotation
		JOINT LeftKnee
		{
			OFFSET	0.000000	-15.500000	0.000000
			CHANNELS 3 Zrotation Xrotation Yrotation
			JOINT LeftAnkle
			{
				OFFSET	0.000000	-15.500000	0.000000
				CHANNELS 3 Zrotation Xrotation Yrotation
				End Site
				{
					OFFSET	0.000000	-4.000000	-2.500000
				}
			}
		}
	}
	JOINT RightHip
	{
		OFFSET	-4.500000	0.000000	0.000000
		CHANNELS 3 Zrotation Xrotation Yrotation
		JOINT RightKnee
		{
			OFFSET	0.000000	-15.500000	0.000000
			CHANNELS 3 Zrotation Xrotation Yrotation
			JOINT RightAnkle
			{
				OFFSET	0.000000	-15.500000	0.000000
				CHANNELS 3 Zrotation Xrotation Yrotation
				End Site
				{
					OFFSET	0.000000	-4.000000	-2.500000
				}
			}
		}
	}
	JOINT Chest
	{
		OFFSET	0.000000	3.000000	-1.000000
		CHANNELS 3 Zrotation Xrotation Yrotation
		JOINT LeftCollar
		{
			OFFSET	0.000000	13.000000	1.000000
			CHANNELS 3 Zrotation Xrotation Yrotation
			JOINT LeftShoulder
			{
				OFFSET	6.500000	0.000000	0.000000
				CHANNELS 3 Zrotation Xrotation Yrotation
				JOINT LeftElbow
				{
					OFFSET	0.000000	-9.000000	0.000000
					CHANNELS 3 Zrotation Xrotation Yrotation
					JOINT LeftWrist
					{
						OFFSET	0.000000	-10.500000	0.000000
						CHANNELS 3 Zrotation Xrotation Yrotation
						End Site
						{
							OFFSET	0.000000	-5.000000	0.000000
						}
					}
				}
			}
		}
		JOINT RightCollar
		{
			OFFSET	0.000000	13.000000	1.000000
			CHANNELS 3 Zrotation Xrotation Yrotation
			JOINT RightShoulder
			{
				OFFSET	-6.500000	0.000000	0.000000
				CHANNELS 3 Zrotation Xrotation Yrotation
				JOINT RightElbow
				{
					OFFSET	0.000000	-9.000000	0.000000
					CHANNELS 3 Zrotation Xrotation Yrotation
					JOINT RightWrist
					{
						OFFSET	0.000000	-10.500000	0.000000
						CHANNELS 3 Zrotation Xrotation Yrotation
						End Site
						{
							OFFSET	0.000000	-5.000000	0.000000
						}
					}
				}
			}
		}
		JOINT Neck
		{
			OFFSET	0.000000	13.000000	1.000000
			CHANNELS 3 Zrotation Xrotation Yrotation
			JOINT Head
			{
				OFFSET	0.000000	5.000000	0.000000
				CHANNELS 3 Zrotation Xrotation Yrotation
				End Site
				{
					OFFSET	0.000000	7.000000	0.000000
				}
			}
		}
	}
}
MOTION
Frames:     16
Frame Time: 0.016667
-12.642673	35.052425	51.657955	0.022967	0.733595	52.070503	-0.980893	0.370585	1.088372	2.000000	2.939363	0.000000	-2.054080	-0.897173	4.455073	2.896913	1.411138	-0.633351	-2.000000	3.505582	0.000000	-3.040208	-3.010231	-4.645238	2.985260	-3.076503	2.250893	-1.691894	0.000000	0.000000	4.580079	-0.038328	-4.930276	0.118760	-6.311688	-3.985204	-2.860457	-0.144660	-50.657284	-1.691894	0.000000	0.000000	-4.676783	0.493374	-3.087922	-0.083605	-6.812742	3.989222	1.816841	-1.822431	47.688225	20.333815	29.018637	-5.662699	-42.346924	-35.701748	29.331692	
-12.640057	35.052250	51.649593	0.033104	0.747760	51.981861	-0.986183	0.068558	1.093914	2.000000	3.532171	0.000000	-2.202180	-1.080933	4.456427	2.903810	1.008414	-0.627266	-2.000000	4.209094	0.000000	-3.475477	-3.434276	-4.643472	2.823480	-2.915798	2.242436	-1.691955	-0.483188	-0.014273	4.580079	-0.038328	-4.930276	0.118760	-6.311688	-3.985204	-2.860457	-0.144660	-50.657284	-1.691955	-0.483188	-0.014273	-4.483417	0.493391	-3.089587	-0.067989	-7.034986	3.991105	1.680277	-1.696626	47.684036	20.252073	29.164112	-5.644207	-42.409927	-35.647945	29.302959	
-12.660601	35.039989	51.660820	0.060444	0.783531	51.917099	-0.991445	-0.233470	1.099429	2.000000	4.136422	0.000000	-2.176688	-1.434786	4.455550	2.907275	0.807051	-0.624206	-2.000000	4.912154	0.000000	-3.910744	-3.857964	-4.642247	2.581468	-2.916394	1.988086	-1.692097	-0.885844	-0.026168	4.580083	0.227527	-4.932968	0.132275	-6.118796	-3.983741	-2.860457	-0.144660	-50.657284	-1.692097	-0.885844	-0.026168	-4.483417	0.493391	-3.089587	-0.067989	-7.034986	3.991105	1.794174	-1.582679	47.683079	20.353191	29.363626	-5.676474	-42.479687	-35.539730	29.206961	
-12.631745	35.025692	51.711533	0.104907	0.840756	51.875935	-0.996678	-0.535498	1.104917	2.000000	4.939919	0.000000	-2.386304	-1.880197	4.457494	2.910750	0.605689	-0.621133	-2.000000	5.233159	0.000000	-4.191596	-4.365708	-4.644158	2.419592	-2.675064	1.818491	-1.530945	-0.885914	-0.023676	4.580079	0.050290	-4.931173	0.132275	-6.118796	-3.983741	-2.860457	-0.144660	-50.657284	-1.530945	-0.885914	-0.023676	-4.483417	0.493391	-3.089587	-0.067989	-7.034986	3.991105	1.794174	-1.582679	47.683079	20.303785	29.576937	-5.668515	-42.384109	-35.219109	29.345089	
-12.530703	35.011784	51.856628	0.210141	0.868892	51.862305	-0.996678	-0.535498	1.104917	2.000000	5.644691	0.000000	-2.355010	-2.305136	4.457672	2.910750	0.605689	-0.621133	-2.000000	5.736837	0.000000	-4.378859	-4.703899	-4.645735	2.177313	-2.514439	1.644690	-1.531102	-1.208065	-0.032288	4.580079	0.050290	-4.931173	0.132275	-6.118796	-3.983741	-2.860457	-0.144660	-50.657284	-1.531102	-1.208065	-0.032288	-4.483417	0.493391	-3.089587	-0.062899	-7.107372	3.991731	1.743739	-1.541244	47.439968	20.286900	29.858313	-5.671183	-42.661869	-35.175426	29.154827	
-12.534252	34.998737	51.915218	0.387725	0.865873	51.847023	-1.003611	-0.938203	1.112191	2.000000	6.829018	0.000000	-2.409602	-2.671446	4.457399	2.910750	0.605689	-0.621133	-2.000000	6.040663	0.000000	-4.800231	-4.936910	-4.643906	1.935390	-2.514893	1.470904	-1.531308	-1.530215	-0.040902	4.580079	0.050290	-4.931173	0.132067	-6.121764	-3.983763	-2.960849	-0.018306	-50.655304	-1.531308	-1.530215	-0.040902	-4.483431	0.670630	-3.088092	-0.062899	-7.107372	3.991731	1.857633	-1.427301	47.438713	20.422012	30.127975	-5.714902	-42.675358	-35.147572	28.975544	
-12.641471	34.992336	52.008919	0.549686	0.846470	51.845394	-1.008777	-1.240233	1.117615	2.000000	8.017914	0.000000	-2.619185	-3.115744	4.459527	3.071868	0.608472	-0.622840	-2.000000	6.243952	0.000000	-4.974364	-5.105903	-4.644067	1.773585	-2.192900	1.462445	-1.531633	-1.932904	-0.051673	4.580079	0.050290	-4.931173	0.131859	-6.124745	-3.983786	-3.175144	0.222010	-50.651062	-1.531633	-1.932904	-0.051673	-4.483431	0.670630	-3.088092	-0.062899	-7.107372	3.991731	1.857633	-1.427301	47.438713	20.558058	30.398909	-5.759133	-42.431313	-35.003494	28.942217	
-12.682734	34.979973	52.008324	0.698261	0.814824	51.825294	-1.013916	-1.542263	1.123013	2.000000	9.319328	0.000000	-2.729236	-3.820355	4.460906	3.071868	0.608472	-0.622840	-2.000000	6.455767	0.000000	-5.241349	-5.422960	-4.645161	1.773324	-2.031768	1.462436	-1.531865	-2.174516	-0.058138	4.773438	0.050288	-4.931343	0.131544	-6.129241	-3.983819	-3.325733	0.411547	-50.647007	-1.531865	-2.174516	-0.058138	-4.290078	0.936511	-3.089009	-0.062899	-7.107372	3.991731	1.857633	-1.427301	47.438713	20.471630	30.548306	-5.739785	-42.157650	-34.652000	28.635717	
-12.734458	34.967674	52.013248	0.853227	0.770069	51.744576	-1.024110	-2.146324	1.133730	2.000000	11.015866	0.000000	-2.665928	-4.686307	4.462134	3.071868	0.608472	-0.622840	-2.000000	6.668493	0.000000	-5.267728	-5.760237	-4.649202	1.611875	-1.870885	1.615126	-1.532035	-2.335592	-0.062449	4.773444	0.227518	-4.933736	0.118028	-6.322134	-3.985285	-3.439654	0.525494	-50.644444	-1.532035	-2.335592	-0.062449	-4.290078	0.936511	-3.089009	-0.059505	-7.155638	3.992152	1.824003	-1.399656	47.276623	20.239275	30.568304	-5.677179	-41.510853	-34.287502	28.384714	
-12.752936	34.952969	52.010651	0.963598	0.726073	51.664993	-0.874555	-2.853721	1.154131	2.000000	13.189042	0.000000	-2.689339	-5.466340	4.464706	3.071868	0.608472	-0.622840	-2.000000	6.880924	0.000000	-5.455114	-6.097412	-4.651837	1.611875	-1.870885	1.776259	-1.854568	-2.335203	-0.075592	4.966821	0.404728	-5.227534	0.097735	-6.611471	-3.987570	-3.439654	0.525494	-50.644444	-1.854568	-2.335203	-0.075592	-4.290078	0.936511	-3.089009	-0.059426	-7.156761	3.992162	2.046549	-1.166723	47.273331	19.764595	30.254507	-5.539686	-40.715412	-33.867134	28.192621	
-12.724548	34.941837	52.183407	1.060698	0.616185	51.554943	-0.889311	-3.759771	1.172396	2.000000	15.674537	0.000000	-2.520041	-6.672660	4.468757	3.310088	0.813971	-0.388204	-2.000000	7.179267	0.000000	-5.708950	-6.245438	-4.651313	1.611401	-1.548619	2.017944	-2.096716	-2.495889	-0.091348	4.966821	0.404728	-5.227534	0.079266	-6.874510	-3.989739	-3.514953	0.674544	-50.397469	-2.096716	-2.495889	-0.091348	-4.290094	1.113755	-3.088111	-0.056035	-7.204954	3.992586	2.013294	-1.139417	47.111168	19.533817	30.273727	-5.477352	-39.694683	-33.042038	27.574463	
-12.757709	34.926514	52.262127	1.134393	0.525695	51.466690	-0.662877	-4.770263	1.212601	2.000000	18.833532	0.000000	-2.430821	-7.882489	4.475002	3.471213	0.816728	-0.390497	-2.000000	7.483321	0.000000	-5.728808	-6.497961	-4.654673	1.611401	-1.548619	2.179076	-2.097562	-2.978963	-0.109057	4.966847	0.581948	-4.940485	0.066012	-7.063097	-3.991347	-3.363433	0.485790	-50.402241	-2.097562	-2.978963	-0.109057	-4.290094	1.113755	-3.281471	-0.056035	-7.204954	3.992586	2.013294	-1.139417	47.111168	18.744648	29.776234	-5.249981	-38.318138	-32.181622	27.168158	
-12.753976	34.912525	52.218681	1.207396	0.402857	51.404690	-0.441173	-6.183087	1.272419	2.000000	22.477633	0.000000	-2.575963	-9.192698	4.483793	3.471213	0.816728	-0.390497	-2.000000	7.689454	0.000000	-5.828325	-6.729841	-4.656883	1.772149	-1.306671	2.187499	-2.098382	-3.381525	-0.123827	4.966847	0.581948	-4.263728	0.041153	-7.416394	-3.994480	-3.117398	0.382589	-49.837273	-2.098382	-3.381525	-0.123827	-4.290124	1.379621	-3.280124	-0.040391	-7.427211	3.994579	1.877861	-1.012414	47.108360	18.258039	29.397114	-5.108552	-36.367786	-31.182198	26.087494	
-12.625546	34.894005	52.325829	1.230178	0.221860	51.339256	-0.465202	-7.894211	1.320025	2.000000	26.607267	0.000000	-2.788709	-10.652887	4.497974	3.628916	1.020786	-0.398406	-2.000000	8.088827	0.000000	-6.088804	-6.961772	-4.657669	2.174429	-1.064246	2.530831	-2.259795	-3.381164	-0.133348	4.966882	0.759169	-4.073359	0.012127	-7.828196	-3.998330	-2.799449	-0.194445	-48.874008	-2.259795	-3.381164	-0.133348	-4.290146	1.556865	-3.279226	-0.040391	-7.427211	3.994579	1.991759	-0.898482	47.106537	17.031673	29.075348	-4.766641	-34.348846	-30.186985	25.082342	
-12.629013	34.864548	52.465496	1.219777	-0.025580	51.273045	-0.077006	-9.408960	1.428337	2.000000	29.863173	0.000000	-2.712373	-11.564255	5.667048	4.028380	1.228852	-0.412620	-2.000000	8.255400	0.000000	-6.129451	-7.162383	-4.819649	2.415676	-0.902608	2.704599	-2.422734	-3.944236	-0.166748	4.966952	1.025001	-3.787807	-0.014127	-8.199965	-4.001991	-2.373994	-0.685002	-48.154457	-2.422734	-3.944236	-0.166748	-4.290146	1.556865	-3.279226	-0.040391	-7.427211	3.994579	1.991759	-0.898482	47.106537	15.920625	28.606609	-4.453242	-32.457695	-29.217785	23.669498	
-12.499166	34.837811	52.459885	1.214662	-0.388451	51.203033	0.150988	-11.021588	1.531072	2.000000	32.790146	0.000000	-1.384043	-12.229671	6.924714	4.182880	1.634025	-0.028371	-2.000000	8.263659	0.000000	-6.303513	-7.316378	-4.820189	2.736959	-0.579585	2.963139	-2.423969	-4.346708	-0.183826	4.966952	1.025001	-3.014369	-0.060937	-8.861064	-4.008934	-1.832494	-1.293630	-47.436260	-2.423969	-4.346708	-0.183826	-4.483577	1.556829	-3.273971	-0.040391	-7.427211	3.994579	1.991759	-0.898482	47.106537	14.957039	28.466843	-4.186136	-30.229410	-27.943045	22.052591	
